<?xml version="1.0" encoding="UTF-8" standalone="no"?>
<svg
   width="36.667969"
   height="36.666901"
   viewBox="0 0 36.667969 36.666901"
   fill="none"
   version="1.1"
   id="svg12"
   sodipodi:docname="eca0d97c3cf8bb7c2c24c6a4d9738d30.svg"
   xmlns:inkscape="http://www.inkscape.org/namespaces/inkscape"
   xmlns:sodipodi="http://sodipodi.sourceforge.net/DTD/sodipodi-0.dtd"
   xmlns="http://www.w3.org/2000/svg"
   xmlns:svg="http://www.w3.org/2000/svg">
  <defs
     id="defs16" />
  <sodipodi:namedview
     id="namedview14"
     pagecolor="#ffffff"
     bordercolor="#666666"
     borderopacity="1.0"
     inkscape:pageshadow="2"
     inkscape:pageopacity="0.0"
     inkscape:pagecheckerboard="0" />
  <path
     fill-rule="evenodd"
     clip-rule="evenodd"
     d="m 26.667969,0 c -5.52,0 -10,4.48 -10,10 0,5.52 4.48,10 10,10 5.52,0 10,-4.48 10,-10 0,-5.52 -4.48,-10 -10,-10 z m 1.9733,11.9733 -1.9733,5 -1.9733,-5 -5,-1.9733 5,-1.9733 1.9733,-5.00003 1.9733,5.00003 5,1.9733 z"
     fill="#ffd767"
     id="path2" />
  <path
     d="m 33.881869,9.38 -4.7267,-1.86663 -1.8667,-4.72667 c -0.1,-0.25333 -0.3466,-0.42 -0.62,-0.42 -0.2733,0 -0.52,0.16667 -0.62,0.42 l -1.8666,4.72667 -4.7267,1.86663 c -0.2533,0.1 -0.42,0.3467 -0.42,0.62 0,0.2734 0.1667,0.52 0.42,0.62 l 4.7267,1.8667 1.8666,4.7267 c 0.1,0.2533 0.3467,0.42 0.62,0.42 0.2734,0 0.52,-0.1667 0.62,-0.42 l 1.8667,-4.7267 4.7267,-1.8667 c 0.2533,-0.1 0.42,-0.3466 0.42,-0.62 0,-0.2733 -0.1667,-0.52 -0.42,-0.62 z m -5.4867,1.9734 c -0.1733,0.0666 -0.3067,0.2066 -0.3733,0.3733 l -1.3534,3.4267 -1.3533,-3.4267 c -0.0667,-0.1733 -0.2067,-0.3067 -0.3733,-0.3733 L 21.515169,10 l 3.4267,-1.3533 c 0.1733,-0.0667 0.3066,-0.2067 0.3733,-0.3733 l 1.3533,-3.4267 1.3534,3.4267 c 0.0666,0.1733 0.2066,0.3066 0.3733,0.3733 L 31.821869,10 Z"
     fill="#0b1736"
     id="path4" />
  <path
     d="m 2.7083292,20.6998 c -1.82665995,-1.84 -1.82665995,-4.84 0,-6.6867 0.88,-0.8866 2.0533401,-1.38 3.3066701,-1.38 1.25333,0 2.42667,0.4867 3.30667,1.38 l 4.7999997,4.8334 c 0.26,0.26 0.68,0.26 0.94,0 0.26,-0.26 0.26,-0.68 0,-0.94 l -4.8,-4.8334 c -1.1332997,-1.14 -2.6466697,-1.7733 -4.2533397,-1.7733 -1.60666,0 -3.12,0.6267 -4.25333,1.7733 -2.33999905,2.36 -2.33999905,6.2 0,8.56 l 4.75333,4.7934 c 0.13334,0.1333 0.3,0.2 0.47334,0.2 0.17333,0 0.34,-0.0667 0.46666,-0.1934 0.26,-0.26 0.26,-0.68 0,-0.94 l -4.75333,-4.7933 z"
     fill="#0b1736"
     id="path6" />
  <path
     d="m 18.668569,21.5402 c -0.26,-0.26 -0.68,-0.26 -0.94,0 -0.26,0.26 -0.26,0.68 0,0.94 l 4.7534,4.7867 c 1.8266,1.8466 1.8266,4.84 0,6.6866 -0.88,0.8867 -2.0534,1.38 -3.3067,1.38 -1.2533,0 -2.4267,-0.4866 -3.3067,-1.38 l -4.8,-4.8333 c -0.26,-0.26 -0.68,-0.26 -0.94,0 -0.2599998,0.26 -0.2599998,0.68 0,0.94 l 4.8,4.8333 c 1.1334,1.14 2.6467,1.7734 4.2534,1.7734 1.6066,0 3.12,-0.6267 4.2533,-1.7734 2.34,-2.36 2.34,-6.2 0,-8.56 l -4.7533,-4.7866 z"
     fill="#0b1736"
     id="path8" />
  <path
     d="m 7.5280092,18.8802 c -0.2599999,0.26 -0.2599999,0.68 0,0.94 l 9.2266598,9.3 c 0.1333,0.1334 0.3,0.2 0.4733,0.2 0.1734,0 0.34,-0.0666 0.4667,-0.1933 0.26,-0.26 0.26,-0.68 0,-0.94 l -9.2266598,-9.3 c -0.26,-0.26 -0.68,-0.26 -0.94,0 z"
     fill="#0b1736"
     id="path10" />
</svg>
