<?xml version="1.0" encoding="UTF-8" standalone="no"?>
<svg
   width="33.359959"
   height="37.36002"
   viewBox="0 0 33.359959 37.36002"
   fill="none"
   version="1.1"
   id="svg10"
   sodipodi:docname="240cda1ab5cbf9df008f4f063b4f12d9.svg"
   xmlns:inkscape="http://www.inkscape.org/namespaces/inkscape"
   xmlns:sodipodi="http://sodipodi.sourceforge.net/DTD/sodipodi-0.dtd"
   xmlns="http://www.w3.org/2000/svg"
   xmlns:svg="http://www.w3.org/2000/svg">
  <defs
     id="defs14" />
  <sodipodi:namedview
     id="namedview12"
     pagecolor="#ffffff"
     bordercolor="#666666"
     borderopacity="1.0"
     inkscape:pageshadow="2"
     inkscape:pageopacity="0.0"
     inkscape:pagecheckerboard="0" />
  <path
     d="m 20.29336,9.02682 c -0.32,1.7 -1.8067,2.9934 -3.6,2.9934 2.6733,0 5.0067,1.1 5.6667,2.6666 h -11.3334 c 0.66,-1.5666 2.9934,-2.6666 5.6667,-2.6666 -1.7933,0 -3.2867,-1.2867 -3.6,-2.9934 h -12.4 v 25.48 c 0,1.2067 0.98,2.1867 2.18667,2.1867 h 27.62663 c 1.2067,0 2.1867,-0.98 2.1867,-2.1867 v -25.48 z m 6.4,16.6467 c 0,1.2933 -1.0467,2.34 -2.34,2.34 1.2933,0 2.34,1.0467 2.34,2.34 0,1.2933 -1.0467,2.34 -2.34,2.34 h -15.32 c -1.2933,0 -2.34,-1.0467 -2.34,-2.34 0,-1.2933 1.0467,-2.34 2.34,-2.34 -1.2933,0 -2.34,-1.0467 -2.34,-2.34 0,-1.2933 1.0467,-2.34 2.34,-2.34 -1.2933,0 -2.34,-1.0467 -2.34,-2.34 0,-1.2933 1.0467,-2.34 2.34,-2.34 h 15.3267 c 1.2933,0 2.34,1.0467 2.34,2.34 0,1.2933 -1.0467,2.34 -2.34,2.34 1.2933,0 2.34,1.0467 2.34,2.34 z"
     fill="#cedafa"
     id="path2" />
  <path
     d="M 30.65336,0 H 2.70667 C 1.21333,0 0,1.21333 0,2.70666 v 31.94666 c 0,1.4933 1.21333,2.7067 2.70667,2.7067 h 27.94669 c 1.4933,0 2.7066,-1.2134 2.7066,-2.7067 V 2.70666 C 33.35996,1.21333 32.14666,0 30.65336,0 Z m 1.3733,34.65332 c 0,0.76 -0.6133,1.3733 -1.3733,1.3733 H 2.70667 c -0.76,0 -1.37334,-0.6133 -1.37334,-1.3733 V 2.70666 c 0,-0.76 0.61334,-1.37333 1.37334,-1.37333 h 27.94669 c 0.76,0 1.3733,0.61333 1.3733,1.37333 z"
     fill="#0b1736"
     id="path4" />
  <path
     d="m 10.76636,15.29982 c 0.34,0.14 0.7333,-0.0133 0.8733,-0.3533 0.5533,-1.3067 2.6733,-2.26 5.0533,-2.26 2.38,0 4.5,0.9467 5.0534,2.26 0.1066,0.2533 0.3533,0.4067 0.6133,0.4067 0.0867,0 0.1733,-0.02 0.26,-0.0534 0.34,-0.14 0.5,-0.5333 0.3533,-0.8733 -0.52,-1.24 -1.8466,-2.2067 -3.5666,-2.7067 0.9866,-0.7933 1.62,-2.0133 1.62,-3.37331 0,-2.38666 -1.9467,-4.33333 -4.3334,-4.33333 -2.3866,0 -4.3333,1.94667 -4.3333,4.33333 0,1.36001 0.6333,2.57331 1.62,3.37331 -1.72,0.5 -3.04,1.46 -3.5667,2.7 -0.14,0.34 0.0134,0.7334 0.3534,0.8734 z m 2.9266,-6.94664 c 0,-1.65333 1.3467,-3 3,-3 1.6534,0 3,1.34667 3,3 0,1.65334 -1.3466,3.00004 -3,3.00004 -1.6533,0 -3,-1.3467 -3,-3.00004 z"
     fill="#0b1736"
     id="path6" />
  <path
     d="m 27.35966,20.99982 c 0,-1.66 -1.3466,-3.0067 -3.0066,-3.0067 h -15.32 c -1.66,0 -3.00669,1.3467 -3.00669,3.0067 0,0.9467 0.45333,1.7867 1.13999,2.34 -0.68666,0.5533 -1.13999,1.3867 -1.13999,2.34 0,0.9533 0.45333,1.7867 1.13999,2.34 -0.68666,0.5533 -1.13999,1.3867 -1.13999,2.34 0,1.66 1.34669,3.0067 3.00669,3.0067 h 15.3266 c 1.66,0 3.0067,-1.3467 3.0067,-3.0067 0,-0.9467 -0.4533,-1.7867 -1.14,-2.34 0.6867,-0.5533 1.14,-1.3867 1.14,-2.34 0,-0.9533 -0.4533,-1.7867 -1.14,-2.34 0.6867,-0.5533 1.14,-1.3867 1.14,-2.34 z m -1.3333,9.3533 c 0,0.92 -0.7467,1.6734 -1.6733,1.6734 h -15.32 c -0.92,0 -1.6734,-0.7467 -1.6734,-1.6734 0,-0.9266 0.7467,-1.6733 1.6734,-1.6733 h 15.3266 c 0.92,0 1.6734,0.7467 1.6734,1.6733 z m 0,-4.6733 c 0,0.92 -0.7467,1.6733 -1.6733,1.6733 h -15.32 c -0.92,0 -1.6734,-0.7466 -1.6734,-1.6733 0,-0.9267 0.7467,-1.6733 1.6734,-1.6733 h 15.3266 c 0.92,0 1.6734,0.7466 1.6734,1.6733 z m -16.9933,-3.0067 c -0.92,0 -1.6734,-0.7466 -1.6734,-1.6733 0,-0.9267 0.7467,-1.6733 1.6734,-1.6733 h 15.3266 c 0.92,0 1.6734,0.7466 1.6734,1.6733 0,0.9267 -0.7467,1.6733 -1.6734,1.6733 z"
     fill="#0b1736"
     id="path8" />
</svg>
