<?xml version="1.0" encoding="UTF-8" standalone="no"?>
<svg
   width="37.386929"
   height="37.386909"
   viewBox="0 0 37.386929 37.386909"
   fill="none"
   version="1.1"
   id="svg28"
   sodipodi:docname="ceee8ac1097c47ede23812f7c0b854eb.svg"
   xmlns:inkscape="http://www.inkscape.org/namespaces/inkscape"
   xmlns:sodipodi="http://sodipodi.sourceforge.net/DTD/sodipodi-0.dtd"
   xmlns="http://www.w3.org/2000/svg"
   xmlns:svg="http://www.w3.org/2000/svg">
  <defs
     id="defs32" />
  <sodipodi:namedview
     id="namedview30"
     pagecolor="#ffffff"
     bordercolor="#666666"
     borderopacity="1.0"
     inkscape:pageshadow="2"
     inkscape:pageopacity="0.0"
     inkscape:pagecheckerboard="0" />
  <path
     d="M 35.13303,0.72688 H 2.3064 c -0.87334,0 -1.58667,0.70666 -1.58667,1.58666 v 32.81997 c 0,0.8734 0.70667,1.5867 1.58667,1.5867 h 32.82663 c 0.8734,0 1.5867,-0.7067 1.5867,-1.5867 V 2.30688 c 0,-0.87334 -0.7067,-1.58667 -1.5867,-1.58667 z M 12.71973,31.38691 H 6.05306 v -6.6667 h 6.66667 z m 0,-18.6667 H 6.05306 V 6.05354 h 6.66667 z m 18.6667,18.6667 h -6.6667 v -6.6667 h 6.6667 z m 0,-18.6667 h -6.6667 V 6.05354 h 6.6667 z"
     fill="#c8faa4"
     id="path2" />
  <path
     d="M 16.72003,18.06001 H 6.05339 c -0.36667,0 -0.66667,0.3 -0.66667,0.6667 0,0.3667 0.3,0.6667 0.66667,0.6667 h 10.00004 v 3.3266 c 0,0.3667 0.3,0.6667 0.6666,0.6667 0.3667,0 0.6667,-0.3 0.6667,-0.6667 v -3.9933 c 0,-0.3667 -0.3,-0.6667 -0.6667,-0.6667 z"
     fill="#0b1736"
     id="path4" />
  <path
     d="m 18.71353,26.05321 c -0.3667,0 -0.6667,0.3 -0.6667,0.6667 v 4.6666 c 0,0.3667 0.3,0.6667 0.6667,0.6667 0.3667,0 0.6667,-0.3 0.6667,-0.6667 v -4.6666 c 0,-0.3667 -0.3,-0.6667 -0.6667,-0.6667 z"
     fill="#0b1736"
     id="path6" />
  <path
     d="m 21.62703,14.05341 h -2.24 V 6.05338 c 0,-0.36667 -0.3,-0.66667 -0.6666,-0.66667 -0.3667,0 -0.6667,0.3 -0.6667,0.66667 v 8.66663 c 0,0.3667 0.3,0.6667 0.6667,0.6667 h 2.9066 c 0.3667,0 0.6667,-0.3 0.6667,-0.6667 0,-0.3666 -0.3,-0.6666 -0.6667,-0.6666 z"
     fill="#0b1736"
     id="path8" />
  <path
     d="m 31.38023,18.04691 h -6.4733 c -0.3667,0 -0.6667,0.3 -0.6667,0.6666 0,0.3667 0.3,0.6667 0.6667,0.6667 h 6.4733 c 0.3667,0 0.6667,-0.3 0.6667,-0.6667 0,-0.3666 -0.3,-0.6666 -0.6667,-0.6666 z"
     fill="#0b1736"
     id="path10" />
  <path
     d="M 12.72003,24.05321 H 6.05339 c -0.36667,0 -0.66667,0.3 -0.66667,0.6667 v 6.6666 c 0,0.3667 0.3,0.6667 0.66667,0.6667 h 6.66664 c 0.3667,0 0.6667,-0.3 0.6667,-0.6667 v -6.6666 c 0,-0.3667 -0.3,-0.6667 -0.6667,-0.6667 z m -0.6666,6.6667 H 6.72006 v -5.3334 h 5.33337 z"
     fill="#0b1736"
     id="path12" />
  <path
     d="m 5.38672,6.05338 v 6.66663 c 0,0.3667 0.3,0.6667 0.66667,0.6667 h 6.66664 c 0.3667,0 0.6667,-0.3 0.6667,-0.6667 V 6.05338 c 0,-0.36667 -0.3,-0.66667 -0.6667,-0.66667 H 6.05339 c -0.36667,0 -0.66667,0.3 -0.66667,0.66667 z m 1.33334,0.66667 h 5.33337 v 5.33336 H 6.72006 Z"
     fill="#0b1736"
     id="path14" />
  <path
     d="m 24.72043,13.38671 h 6.6666 c 0.3667,0 0.6667,-0.3 0.6667,-0.6667 V 6.05338 c 0,-0.36667 -0.3,-0.66667 -0.6667,-0.66667 h -6.6666 c -0.3667,0 -0.6667,0.3 -0.6667,0.66667 v 6.66663 c 0,0.3667 0.3,0.6667 0.6667,0.6667 z m 0.6666,-6.66666 h 5.3334 v 5.33336 h -5.3334 z"
     fill="#0b1736"
     id="path16" />
  <path
     d="m 32.05373,31.38651 v -6.6666 c 0,-0.3667 -0.3,-0.6667 -0.6667,-0.6667 h -6.6666 c -0.3667,0 -0.6667,0.3 -0.6667,0.6667 v 6.6666 c 0,0.3667 0.3,0.6667 0.6667,0.6667 h 6.6666 c 0.3667,0 0.6667,-0.3 0.6667,-0.6667 z m -1.3333,-0.6666 h -5.3334 v -5.3334 h 5.3334 z"
     fill="#0b1736"
     id="path18" />
  <path
     d="M 11.49353,36.05361 H 2.68017 c -0.74,0 -1.34,-0.6 -1.34,-1.34 v -8.8067 c 0,-0.3667 -0.3,-0.6667 -0.66666,-0.6667 -0.36667,0 -0.66667,0.3 -0.66667,0.6667 v 8.8067 c 0,1.4733 1.2,2.6733 2.67333,2.6733 h 8.81996 c 0.3667,0 0.6667,-0.3 0.6667,-0.6667 0,-0.3666 -0.3,-0.6666 -0.6667,-0.6666 z"
     fill="#0b1736"
     id="path20" />
  <path
     d="m 36.72023,25.23341 c -0.3667,0 -0.6667,0.3 -0.6667,0.6667 v 8.8066 c 0,0.74 -0.6,1.34 -1.34,1.34 h -8.8066 c -0.3667,0 -0.6667,0.3 -0.6667,0.6667 0,0.3667 0.3,0.6667 0.6667,0.6667 h 8.8066 c 1.4734,0 2.6734,-1.2 2.6734,-2.6734 v -8.8066 c 0,-0.3667 -0.3,-0.6667 -0.6667,-0.6667 z"
     fill="#0b1736"
     id="path22" />
  <path
     d="m 34.71353,0 h -8.8066 c -0.3667,0 -0.6667,0.3 -0.6667,0.66666 0,0.36667 0.3,0.66667 0.6667,0.66667 h 8.8066 c 0.74,0 1.34,0.6 1.34,1.34 v 8.81338 c 0,0.3666 0.3,0.6666 0.6667,0.6666 0.3667,0 0.6667,-0.3 0.6667,-0.6666 V 2.67333 C 37.38693,1.19999 36.18693,0 34.71353,0 Z"
     fill="#0b1736"
     id="path24" />
  <path
     d="m 0.66667,12.16001 c 0.36667,0 0.66667,-0.3 0.66667,-0.6667 V 2.67333 c 0,-0.74 0.6,-1.34 1.34,-1.34 h 8.81999 c 0.3667,0 0.6667,-0.3 0.6667,-0.66667 C 12.16003,0.3 11.86003,0 11.49333,0 H 2.68 C 1.2,0 0,1.19999 0,2.67333 v 8.81338 c 0,0.3666 0.3,0.6666 0.66667,0.6666 z"
     fill="#0b1736"
     id="path26" />
</svg>
